<svg width="17" height="13" viewBox="0 0 17 13" fill="none" xmlns="http://www.w3.org/2000/svg">
<path d="M15.2479 0H0.847852C0.635754 0.000247015 0.432415 0.0846118 0.282439 0.234587C0.132463 0.384563 0.0480986 0.587903 0.0478516 0.8V11.4667C0.0480986 11.6788 0.132463 11.8821 0.282439 12.0321C0.432415 12.1821 0.635754 12.2664 0.847852 12.2667H15.2479C15.4599 12.2664 15.6633 12.1821 15.8133 12.0321C15.9632 11.8821 16.0476 11.6788 16.0479 11.4667V0.8C16.0476 0.587903 15.9632 0.384563 15.8133 0.234587C15.6633 0.0846118 15.4599 0.000247015 15.2479 0ZM14.9812 1.06667V3.2H1.11452V1.06667H14.9812ZM1.11452 11.2V5.33333H14.9812V11.2H1.11452Z" fill="#6F81A1"/>
<path d="M4.58115 8H2.44781V9.06667H4.58115V8Z" fill="#6F81A1"/>
<path d="M7.78122 8H5.64789V9.06667H7.78122V8Z" fill="#6F81A1"/>
</svg>
