<svg width="18" height="19" viewBox="0 0 18 19" fill="none" xmlns="http://www.w3.org/2000/svg">
<path d="M6.00003 9.04028C6.51921 9.04028 7.02672 8.88633 7.4584 8.59789C7.89008 8.30945 8.22653 7.89948 8.42521 7.41983C8.62389 6.94017 8.67588 6.41237 8.57459 5.90317C8.47331 5.39397 8.2233 4.92624 7.85619 4.55913C7.48907 4.19202 7.02134 3.94201 6.51214 3.84072C6.00294 3.73944 5.47514 3.79142 4.99549 3.9901C4.51583 4.18878 4.10586 4.52523 3.81742 4.95691C3.52898 5.38859 3.37503 5.89611 3.37503 6.41528C3.37503 7.11148 3.65159 7.77916 4.14388 8.27144C4.63616 8.76372 5.30384 9.04028 6.00003 9.04028V9.04028ZM6.00003 5.29028C6.22253 5.29028 6.44004 5.35626 6.62505 5.47988C6.81005 5.6035 6.95425 5.7792 7.0394 5.98477C7.12454 6.19033 7.14682 6.41653 7.10341 6.63476C7.06001 6.85299 6.95286 7.05345 6.79553 7.21078C6.63819 7.36811 6.43774 7.47526 6.21951 7.51867C6.00128 7.56208 5.77508 7.5398 5.56951 7.45465C5.36394 7.3695 5.18824 7.22531 5.06463 7.0403C4.94101 6.8553 4.87503 6.63779 4.87503 6.41528C4.87503 6.11692 4.99356 5.83077 5.20454 5.61979C5.41551 5.40881 5.70166 5.29028 6.00003 5.29028V5.29028Z" fill="#6F81A1"/>
<path d="M12 11.2903C11.4809 11.2903 10.9733 11.4442 10.5417 11.7327C10.11 12.0211 9.77353 12.4311 9.57485 12.9107C9.37617 13.3904 9.32418 13.9182 9.42547 14.4274C9.52676 14.9366 9.77676 15.4043 10.1439 15.7714C10.511 16.1386 10.9787 16.3886 11.4879 16.4898C11.9971 16.5911 12.5249 16.5391 13.0046 16.3405C13.4842 16.1418 13.8942 15.8053 14.1826 15.3737C14.4711 14.942 14.625 14.4345 14.625 13.9153C14.625 13.2191 14.3485 12.5514 13.8562 12.0591C13.3639 11.5668 12.6962 11.2903 12 11.2903V11.2903ZM12 15.0403C11.7775 15.0403 11.56 14.9743 11.375 14.8507C11.19 14.7271 11.0458 14.5514 10.9607 14.3458C10.8755 14.1402 10.8532 13.914 10.8966 13.6958C10.9401 13.4776 11.0472 13.2771 11.2045 13.1198C11.3619 12.9625 11.5623 12.8553 11.7806 12.8119C11.9988 12.7685 12.225 12.7908 12.4306 12.8759C12.6361 12.9611 12.8118 13.1053 12.9354 13.2903C13.0591 13.4753 13.125 13.6928 13.125 13.9153C13.125 14.2137 13.0065 14.4998 12.7955 14.7108C12.5845 14.9218 12.2984 15.0403 12 15.0403Z" fill="#6F81A1"/>
<path d="M14.805 3.98532C14.743 3.92318 14.6694 3.87389 14.5883 3.84025C14.5072 3.80662 14.4203 3.78931 14.3325 3.78931C14.2448 3.78931 14.1578 3.80662 14.0768 3.84025C13.9957 3.87389 13.922 3.92318 13.86 3.98532L3.19503 14.6503C3.07128 14.7766 3.00137 14.946 3.00003 15.1228C2.99983 15.255 3.03887 15.3842 3.1122 15.4942C3.18553 15.6041 3.28986 15.6899 3.41195 15.7405C3.53405 15.7911 3.66842 15.8043 3.79803 15.7785C3.92765 15.7526 4.04668 15.6889 4.14003 15.5953L14.805 4.93032C14.8672 4.86832 14.9165 4.79467 14.9501 4.71359C14.9837 4.63251 15.001 4.5456 15.001 4.45782C15.001 4.37004 14.9837 4.28313 14.9501 4.20205C14.9165 4.12097 14.8672 4.04732 14.805 3.98532V3.98532Z" fill="#6F81A1"/>
</svg>
