<svg width="18" height="19" viewBox="0 0 18 19" fill="none" xmlns="http://www.w3.org/2000/svg">
<path d="M17.1 4.99014H13.3437C13.7304 4.41254 13.8793 3.70801 13.7594 3.02335C13.6395 2.33868 13.26 1.72669 12.7001 1.31488C12.1401 0.903075 11.4428 0.72322 10.7536 0.812792C10.0643 0.902364 9.43612 1.25445 9 1.7957C8.56388 1.25445 7.93574 0.902364 7.24644 0.812792C6.55715 0.72322 5.85988 0.903075 5.29992 1.31488C4.73995 1.72669 4.36048 2.33868 4.24058 3.02335C4.12067 3.70801 4.26957 4.41254 4.65626 4.99014H0.9C0.66139 4.99041 0.432633 5.08532 0.263911 5.25405C0.0951883 5.42277 0.000277892 5.65153 0 5.89014V17.9485C0 18.4126 0.403763 18.7901 0.9 18.7901H17.1C17.5962 18.7901 18 18.4126 18 17.9485V5.89014C17.9997 5.65153 17.9048 5.42277 17.7361 5.25405C17.5674 5.08532 17.3386 4.99041 17.1 4.99014V4.99014ZM11.1 1.99014C11.4978 1.99014 11.8794 2.14817 12.1607 2.42948C12.442 2.71078 12.6 3.09231 12.6 3.49014C12.6 3.88796 12.442 4.26949 12.1607 4.5508C11.8794 4.8321 11.4978 4.99014 11.1 4.99014H9.6V3.49014C9.60045 3.09245 9.75863 2.71118 10.0398 2.42997C10.321 2.14876 10.7023 1.99058 11.1 1.99014V1.99014ZM5.4 3.49014C5.4 3.09231 5.55804 2.71078 5.83934 2.42948C6.12064 2.14817 6.50218 1.99014 6.9 1.99014C7.29783 1.99014 7.67936 2.14817 7.96066 2.42948C8.24197 2.71078 8.4 3.09231 8.4 3.49014V4.99014H6.9C6.50231 4.98969 6.12104 4.83151 5.83983 4.5503C5.55863 4.2691 5.40045 3.88782 5.4 3.49014V3.49014ZM1.2 17.5901V9.79014H6.6V17.5901H1.2ZM7.8 17.5901V9.79014H10.2V17.5901H7.8ZM16.8 17.5901H11.4V9.79014H16.8V17.5901ZM1.2 8.59014V6.19014H16.8V8.59014H1.2Z" fill="#6F81A1"/>
</svg>
