<svg width="20" height="21" viewBox="0 0 20 21" fill="none" xmlns="http://www.w3.org/2000/svg">
<path d="M18.0501 4.33197C17.8842 4.1863 17.6673 4.11239 17.447 4.12645C17.2268 4.14051 17.021 4.2414 16.8751 4.40697L15.3167 6.19864L14.7917 5.60697C14.6447 5.44121 14.4379 5.34063 14.2168 5.32734C13.9957 5.31406 13.7783 5.38917 13.6126 5.53614C13.4468 5.68311 13.3462 5.88992 13.3329 6.11105C13.3196 6.33219 13.3947 6.54955 13.5417 6.71531L14.7001 8.01531C14.7789 8.10268 14.8754 8.17236 14.9831 8.21976C15.0908 8.26716 15.2074 8.2912 15.3251 8.29031C15.442 8.28898 15.5573 8.26307 15.6635 8.21426C15.7698 8.16544 15.8646 8.09482 15.9417 8.00697L18.1167 5.50697C18.2634 5.34219 18.3388 5.12596 18.3263 4.90569C18.3138 4.68543 18.2144 4.47911 18.0501 4.33197Z" fill="#6F81A1"/>
<path d="M8.33333 9.95695C8.9926 9.95695 9.63707 9.76146 10.1852 9.39518C10.7334 9.02891 11.1606 8.50832 11.4129 7.89923C11.6652 7.29014 11.7312 6.61992 11.6026 5.97332C11.474 5.32671 11.1565 4.73277 10.6904 4.2666C10.2242 3.80042 9.63024 3.48295 8.98363 3.35433C8.33703 3.22572 7.66681 3.29173 7.05772 3.54402C6.44863 3.79631 5.92804 4.22355 5.56177 4.77172C5.1955 5.31988 5 5.96435 5 6.62362C5 7.50767 5.35119 8.35552 5.97631 8.98064C6.60143 9.60576 7.44928 9.95695 8.33333 9.95695ZM8.33333 4.95695C8.66297 4.95695 8.9852 5.0547 9.25928 5.23784C9.53337 5.42097 9.74699 5.68127 9.87313 5.98581C9.99928 6.29036 10.0323 6.62547 9.96798 6.94877C9.90367 7.27207 9.74493 7.56904 9.51184 7.80213C9.27876 8.03522 8.98179 8.19395 8.65848 8.25826C8.33518 8.32257 8.00007 8.28956 7.69553 8.16342C7.39098 8.03727 7.13069 7.82365 6.94755 7.54957C6.76442 7.27549 6.66667 6.95325 6.66667 6.62362C6.66667 6.18159 6.84226 5.75767 7.15482 5.44511C7.46738 5.13255 7.89131 4.95695 8.33333 4.95695Z" fill="#6F81A1"/>
<path d="M8.33333 11.6236C6.78624 11.6236 5.30251 12.2382 4.20854 13.3321C3.11458 14.4261 2.5 15.9098 2.5 17.4569C2.5 17.6779 2.5878 17.8899 2.74408 18.0462C2.90036 18.2025 3.11232 18.2903 3.33333 18.2903C3.55435 18.2903 3.76631 18.2025 3.92259 18.0462C4.07887 17.8899 4.16667 17.6779 4.16667 17.4569C4.16667 16.3519 4.60565 15.2921 5.38706 14.5107C6.16846 13.7292 7.22826 13.2903 8.33333 13.2903C9.4384 13.2903 10.4982 13.7292 11.2796 14.5107C12.061 15.2921 12.5 16.3519 12.5 17.4569C12.5 17.6779 12.5878 17.8899 12.7441 18.0462C12.9004 18.2025 13.1123 18.2903 13.3333 18.2903C13.5543 18.2903 13.7663 18.2025 13.9226 18.0462C14.0789 17.8899 14.1667 17.6779 14.1667 17.4569C14.1667 15.9098 13.5521 14.4261 12.4581 13.3321C11.3642 12.2382 9.88043 11.6236 8.33333 11.6236Z" fill="#6F81A1"/>
</svg>
