<svg width="20" height="21" viewBox="0 0 20 21" fill="none" xmlns="http://www.w3.org/2000/svg">
<path d="M15.8334 18.082L13.9084 10.582C14.6201 9.69645 15.0056 8.59305 15.0001 7.45697C15.0001 6.13089 14.4733 4.85912 13.5356 3.92144C12.5979 2.98375 11.3262 2.45697 10.0001 2.45697C8.67401 2.45697 7.40224 2.98375 6.46456 3.92144C5.52688 4.85912 5.00009 6.13089 5.00009 7.45697C4.99781 8.60182 5.39243 9.71206 6.11676 10.5986L4.16676 18.082C4.12528 18.2419 4.13229 18.4106 4.18689 18.5665C4.24149 18.7225 4.34122 18.8587 4.47341 18.9578C4.6056 19.057 4.76427 19.1146 4.92928 19.1233C5.09428 19.1321 5.25816 19.0916 5.40009 19.007L9.84176 16.3986L14.5751 19.0153C14.703 19.0925 14.8508 19.1302 15.0001 19.1236C15.1295 19.1278 15.2581 19.1017 15.3756 19.0475C15.4932 18.9933 15.5965 18.9124 15.6774 18.8113C15.7583 18.7102 15.8145 18.5917 15.8416 18.4651C15.8686 18.3385 15.8659 18.2073 15.8334 18.082V18.082ZM10.0001 4.12364C10.6594 4.12364 11.3038 4.31913 11.852 4.6854C12.4002 5.05168 12.8274 5.57227 13.0797 6.18136C13.332 6.79045 13.398 7.46067 13.2694 8.10727C13.1408 8.75387 12.8233 9.34782 12.3571 9.81399C11.8909 10.2802 11.297 10.5976 10.6504 10.7263C10.0038 10.8549 9.33357 10.7889 8.72448 10.5366C8.11539 10.2843 7.5948 9.85703 7.22853 9.30887C6.86226 8.76071 6.66676 8.11624 6.66676 7.45697C6.66676 6.57292 7.01795 5.72507 7.64307 5.09995C8.26819 4.47483 9.11604 4.12364 10.0001 4.12364V4.12364ZM10.2584 14.7153C10.1317 14.6422 9.98804 14.6037 9.84176 14.6037C9.69548 14.6037 9.55178 14.6422 9.42509 14.7153L6.30009 16.5486L7.50009 11.7986C8.2506 12.23 9.10111 12.457 9.96676 12.457C10.8324 12.457 11.6829 12.23 12.4334 11.7986L13.7084 16.6236L10.2584 14.7153Z" fill="#6F81A1"/>
</svg>
